<svg width="16" height="19" viewBox="0 0 16 19" fill="none" xmlns="http://www.w3.org/2000/svg">
<path d="M10.2833 6.99995L9.995 14.4999M6.005 14.4999L5.71667 6.99995M14.0233 4.32495C14.3083 4.36828 14.5917 4.41411 14.875 4.46328M14.0233 4.32578L13.1333 15.8941C13.097 16.3651 12.8842 16.8051 12.5375 17.126C12.1908 17.4469 11.7358 17.6251 11.2633 17.6249H4.73667C4.26425 17.6251 3.80919 17.4469 3.46248 17.126C3.11578 16.8051 2.90299 16.3651 2.86667 15.8941L1.97667 4.32495M14.0233 4.32495C13.0616 4.17954 12.0948 4.06919 11.125 3.99411M1.125 4.46245C1.40833 4.41328 1.69167 4.36745 1.97667 4.32495M1.97667 4.32495C2.93844 4.17955 3.9052 4.06919 4.875 3.99411M11.125 3.99411V3.23078C11.125 2.24745 10.3667 1.42745 9.38333 1.39661C8.46135 1.36714 7.53865 1.36714 6.61667 1.39661C5.63333 1.42745 4.875 2.24828 4.875 3.23078V3.99411M11.125 3.99411C9.04477 3.83334 6.95523 3.83334 4.875 3.99411" stroke="#938F99" stroke-width="1.5" stroke-linecap="round" stroke-linejoin="round"/>
</svg>
