<svg width="24" height="24" viewBox="0 0 24 24" fill="none" xmlns="http://www.w3.org/2000/svg">
    <path d="M14.0577 10.0332C14.6611 10.6381 15 11.4577 15 12.3121C15 13.1665 14.6611 13.986 14.0577 14.5909L9.5 19.1487C8.89508 19.7521 8.07554 20.0909 7.22113 20.0909C6.36672 20.0909 5.54718 19.7521 4.94226 19.1487C4.33886 18.5438 4 17.7242 4 16.8698C4 16.0154 4.33886 15.1959 4.94226 14.5909" stroke="#CAC4D0" stroke-width="2" stroke-linecap="round" stroke-linejoin="round"/>
    <path d="M19.0577 9.5C19.6611 8.89508 20 8.07554 20 7.22113C20 6.36672 19.6611 5.54718 19.0577 4.94226C18.4528 4.33886 17.6333 4 16.7789 4C15.9245 4 15.1049 4.33886 14.5 4.94226L9.94226 9.5C9.33886 10.1049 9 10.9245 9 11.7789C9 12.6333 9.33886 13.4528 9.94226 14.0577V14.0577" stroke="#CAC4D0" stroke-width="2" stroke-linecap="round" stroke-linejoin="round"/>
</svg>
