<svg width="20" height="21" viewBox="0 0 20 21" fill="none" xmlns="http://www.w3.org/2000/svg">
<path d="M17.5 7.32539V16.0555C17.5 16.266 17.4122 16.4679 17.2559 16.6168C17.0996 16.7656 16.8877 16.8492 16.6667 16.8492H3.33333C3.11232 16.8492 2.90036 16.7656 2.74408 16.6168C2.5878 16.4679 2.5 16.266 2.5 16.0555V4.94443C2.5 4.73395 2.5878 4.53208 2.74408 4.38324C2.90036 4.23441 3.11232 4.15079 3.33333 4.15079H7.99167C8.21028 4.15166 8.41978 4.23432 8.575 4.38094L10.5917 6.30158C10.7469 6.44821 10.9564 6.53086 11.175 6.53174H16.6667C16.8877 6.53174 17.0996 6.61536 17.2559 6.7642C17.4122 6.91304 17.5 7.1149 17.5 7.32539Z" stroke="#938F99" stroke-width="1.5" stroke-linecap="round" stroke-linejoin="round"/>
</svg>
