<svg width="20" height="21" viewBox="0 0 20 21" fill="none" xmlns="http://www.w3.org/2000/svg">
<path d="M14.9849 16.1042C14.4026 15.3332 13.6493 14.708 12.7842 14.2778C11.9192 13.8476 10.9661 13.6241 9.99993 13.625C9.0338 13.6241 8.08067 13.8476 7.21561 14.2778C6.35056 14.708 5.59721 15.3332 5.01493 16.1042M14.9841 16.1042C16.1203 15.0935 16.9225 13.7613 17.2842 12.2842C17.646 10.8072 17.5501 9.25507 17.0095 7.83373C16.4688 6.41239 15.5089 5.18898 14.2569 4.32575C13.005 3.46251 11.5202 3.00024 9.99951 3.00024C8.47881 3.00024 6.99404 3.46251 5.7421 4.32575C4.49016 5.18898 3.5302 6.41239 2.98954 7.83373C2.44888 9.25507 2.35306 10.8072 2.71478 12.2842C3.0765 13.7613 3.87868 15.0935 5.01493 16.1042M14.9841 16.1042C13.6124 17.3276 11.838 18.0026 9.99993 18C8.16162 18.0028 6.38679 17.3278 5.01493 16.1042M12.4999 8.625C12.4999 9.28804 12.2365 9.92393 11.7677 10.3928C11.2989 10.8616 10.663 11.125 9.99993 11.125C9.33689 11.125 8.701 10.8616 8.23216 10.3928C7.76332 9.92393 7.49993 9.28804 7.49993 8.625C7.49993 7.96196 7.76332 7.32607 8.23216 6.85723C8.701 6.38839 9.33689 6.125 9.99993 6.125C10.663 6.125 11.2989 6.38839 11.7677 6.85723C12.2365 7.32607 12.4999 7.96196 12.4999 8.625Z" stroke="#938F99" stroke-width="1.5" stroke-linecap="round" stroke-linejoin="round"/>
</svg>
