<svg width="24" height="24" viewBox="0 0 24 24" fill="none" xmlns="http://www.w3.org/2000/svg">
    <path d="M10.5216 3C10.2851 3 10.0486 3.05458 9.8212 3.13644L3.12642 5.91077C2.68141 6.09301 2.32697 6.44451 2.14105 6.888C1.95512 7.33149 1.95293 7.83067 2.13494 8.27578L6.64664 19.1457C6.77991 19.4754 7.00688 19.7588 7.29949 19.9609C7.5921 20.163 7.93752 20.2748 8.29305 20.2827C8.52955 20.2827 8.77514 20.2554 9.01164 20.1463L15.7155 17.3719C16.0391 17.2346 16.3165 17.0074 16.5148 16.7172C16.7131 16.427 16.824 16.086 16.8343 15.7346C16.8434 15.5072 16.798 15.2434 16.7161 15.0069L12.168 4.13702C12.0394 3.80412 11.8136 3.51763 11.52 3.31483C11.2264 3.11204 10.8785 3.00234 10.5216 3ZM13.6871 3L16.8252 10.5953V4.81923C16.8252 4.33674 16.6336 3.87401 16.2924 3.53284C15.9512 3.19167 15.4885 3 15.006 3M18.6536 4.40081V12.6146L20.8639 7.28429C20.9546 7.06395 21.0008 6.82789 21 6.58965C20.9992 6.3514 20.9513 6.11566 20.8592 5.89594C20.7671 5.67622 20.6325 5.47684 20.4632 5.30925C20.2939 5.14165 20.0931 5.00913 19.8725 4.91929M10.5216 4.79194L15.0515 15.7255L8.32943 18.509L3.79954 7.58447" fill="black"/>
</svg>
