<svg width="24" height="24" viewBox="0 0 24 24" fill="none" xmlns="http://www.w3.org/2000/svg">
<path d="M15.1 4.3C16.9225 6.12254 16.9225 9.07746 15.1 10.9C13.2774 12.7225 10.3225 12.7225 8.49995 10.9C6.67741 9.07746 6.67741 6.12254 8.49995 4.3C10.3225 2.47746 13.2774 2.47746 15.1 4.3Z" stroke="black" stroke-width="2.5"/>
<path d="M3 23V21.9C3 19.8226 3.97808 17.8664 5.64 16.62V16.62C6.78243 15.7632 8.17196 15.3 9.6 15.3H14C15.428 15.3 16.8176 15.7632 17.96 16.62V16.62C19.6219 17.8664 20.6 19.8226 20.6 21.9V23" stroke="black" stroke-width="2.5"/>
<circle cx="21" cy="3" r="2.5" fill="#3AAFB9" stroke="black"/>
</svg>
