<svg width="20" height="20" viewBox="0 0 20 20" fill="none" xmlns="http://www.w3.org/2000/svg">
<mask id="path-1-inside-1_738_962" fill="white">
<path d="M14 15V18C14 18.2652 13.8946 18.5196 13.7071 18.7071C13.5196 18.8946 13.2652 19 13 19H3C2.73478 19 2.48043 18.8946 2.29289 18.7071C2.10536 18.5196 2 18.2652 2 18V6C2 5.73478 2.10536 5.48043 2.29289 5.29289C2.48043 5.10536 2.73478 5 3 5H6"/>
</mask>
<path d="M15.5 15C15.5 14.1716 14.8284 13.5 14 13.5C13.1716 13.5 12.5 14.1716 12.5 15H15.5ZM2 18H0.5H2ZM3 5V6.5V5ZM6 6.5C6.82843 6.5 7.5 5.82843 7.5 5C7.5 4.17157 6.82843 3.5 6 3.5V6.5ZM12.5 15V18H15.5V15H12.5ZM12.5 18C12.5 17.8674 12.5527 17.7402 12.6464 17.6464L14.7678 19.7678C15.2366 19.2989 15.5 18.663 15.5 18H12.5ZM12.6464 17.6464C12.7402 17.5527 12.8674 17.5 13 17.5V20.5C13.663 20.5 14.2989 20.2366 14.7678 19.7678L12.6464 17.6464ZM13 17.5H3V20.5H13V17.5ZM3 17.5C3.13261 17.5 3.25978 17.5527 3.35355 17.6464L1.23223 19.7678C1.70108 20.2366 2.33696 20.5 3 20.5V17.5ZM3.35355 17.6464C3.44732 17.7402 3.5 17.8674 3.5 18H0.5C0.5 18.663 0.763391 19.2989 1.23223 19.7678L3.35355 17.6464ZM3.5 18V6H0.5V18H3.5ZM3.5 6C3.5 6.13261 3.44732 6.25979 3.35355 6.35355L1.23223 4.23223C0.763392 4.70107 0.5 5.33696 0.5 6H3.5ZM3.35355 6.35355C3.25979 6.44732 3.13261 6.5 3 6.5V3.5C2.33696 3.5 1.70107 3.76339 1.23223 4.23223L3.35355 6.35355ZM3 6.5H6V3.5H3V6.5Z" fill="#CAC4D0" mask="url(#path-1-inside-1_738_962)"/>
<path d="M7 1.75H17C17.1381 1.75 17.25 1.86193 17.25 2V14C17.25 14.1381 17.1381 14.25 17 14.25H7C6.86193 14.25 6.75 14.1381 6.75 14V2C6.75 1.86193 6.86193 1.75 7 1.75Z" stroke="#CAC4D0" stroke-width="1.5" stroke-linecap="round" stroke-linejoin="round"/>
</svg>
